<?xml version="1.0" encoding="iso-8859-1"?>
<!-- Generator: Adobe Illustrator 19.0.0, SVG Export Plug-In . SVG Version: 6.00 Build 0)  -->
<svg version="1.1" id="Capa_1" xmlns="http://www.w3.org/2000/svg" xmlns:xlink="http://www.w3.org/1999/xlink" x="0px" y="0px"
	 viewBox="0 0 512 512" style="enable-background:new 0 0 512 512;" xml:space="preserve">
<g>
	<g>
		<path d="M330.667,0H181.333c-41.173,0-74.667,33.493-74.667,74.667v128c0,5.888,4.779,10.667,10.667,10.667
			S128,208.555,128,202.667v-128c0-29.397,23.915-53.333,53.333-53.333h149.333c29.419,0,53.333,23.936,53.333,53.333v128
			c0,5.888,4.779,10.667,10.667,10.667s10.667-4.779,10.667-10.667v-128C405.333,33.493,371.84,0,330.667,0z"/>
	</g>
</g>
<g>
	<g>
		<path d="M501.333,128h-74.667v74.667c0,17.643-14.357,32-32,32s-32-14.357-32-32V128H149.333v74.667c0,17.643-14.357,32-32,32
			c-17.643,0-32-14.357-32-32V128H10.667C4.779,128,0,132.779,0,138.667v362.667C0,507.221,4.779,512,10.667,512h490.667
			c5.888,0,10.667-4.779,10.667-10.667V138.667C512,132.779,507.221,128,501.333,128z M458.667,426.667H53.333
			c-5.888,0-10.667-4.779-10.667-10.667c0-5.888,4.779-10.667,10.667-10.667h405.333c5.888,0,10.667,4.779,10.667,10.667
			C469.333,421.888,464.555,426.667,458.667,426.667z"/>
	</g>
</g>
<g>
</g>
<g>
</g>
<g>
</g>
<g>
</g>
<g>
</g>
<g>
</g>
<g>
</g>
<g>
</g>
<g>
</g>
<g>
</g>
<g>
</g>
<g>
</g>
<g>
</g>
<g>
</g>
<g>
</g>
</svg>
